HIERARCHY
ROOT Hips
{
  OFFSET 52.1627 56.6694 -13.5332
  CHANNELS 6 Xposition Yposition Zposition Zrotation Xrotation Yrotation
  JOINT spine
  {
    OFFSET 0 7.96568 0.458067
    CHANNELS 3 Zrotation Xrotation Yrotation
    JOINT spine1
    {
      OFFSET 0 10.2431 0
      CHANNELS 3 Zrotation Xrotation Yrotation
      JOINT spine2
      {
        OFFSET 0 9.81475 0
        CHANNELS 3 Zrotation Xrotation Yrotation
        JOINT Neck
        {
          OFFSET 0 25.1986 1.20138
          CHANNELS 3 Zrotation Xrotation Yrotation
          JOINT Head
          {
            OFFSET 0 7.61315 0
            CHANNELS 3 Zrotation Xrotation Yrotation
            End Site
            {
              OFFSET 0 18.4281 -6.07733
            }
          }
        }
        JOINT RightShoulder
        {
          OFFSET -4.1327 10.5992 -0.575451
          CHANNELS 3 Zrotation Xrotation Yrotation
          JOINT RightArm
          {
            OFFSET 0 13.9018 0
            CHANNELS 3 Zrotation Xrotation Yrotation
            JOINT RightArmRoll
            {
              OFFSET 0 7.01789 0
              CHANNELS 3 Zrotation Xrotation Yrotation
              JOINT RightForeArm
              {
                OFFSET 0 20.4406 0
                CHANNELS 3 Zrotation Xrotation Yrotation
                JOINT RightForeArmRoll
                {
                  OFFSET 0 7.87516 0
                  CHANNELS 3 Zrotation Xrotation Yrotation
                  JOINT RightHand
                  {
                    OFFSET 0 15.8037 0
                    CHANNELS 3 Zrotation Xrotation Yrotation
                    End Site
                    {
                      OFFSET 0 0 0
                    }
                  }
                }
              }
            }
          }
        }
        JOINT LeftShoulder
        {
          OFFSET 4.1327 10.5992 -0.575451
          CHANNELS 3 Zrotation Xrotation Yrotation
          JOINT LeftArm
          {
            OFFSET 0 13.9018 0
            CHANNELS 3 Zrotation Xrotation Yrotation
            JOINT LeftArmRoll
            {
              OFFSET 0 7.01789 0
              CHANNELS 3 Zrotation Xrotation Yrotation
              JOINT LeftForeArm
              {
                OFFSET 0 20.4406 0
                CHANNELS 3 Zrotation Xrotation Yrotation
                JOINT LeftForeArmRoll
                {
                  OFFSET 0 7.87515 0
                  CHANNELS 3 Zrotation Xrotation Yrotation
                  JOINT LeftHand
                  {
                    OFFSET 0 15.8037 0
                    CHANNELS 3 Zrotation Xrotation Yrotation
                    End Site
                    {
                      OFFSET 0 0 0
                    }
                  }
                }
              }
            }
          }
        }
      }
    }
  }
  JOINT RightUpLeg
  {
    OFFSET -7.06048 -1.2947 -1.08609
    CHANNELS 3 Zrotation Xrotation Yrotation
    JOINT RightUpLegRoll
    {
      OFFSET 0 18.5308 0
      CHANNELS 3 Zrotation Xrotation Yrotation
      JOINT RightLeg
      {
        OFFSET 0 -22.9476 0
        CHANNELS 3 Zrotation Xrotation Yrotation
        JOINT RightLegRoll
        {
          OFFSET 0 23.0226 0
          CHANNELS 3 Zrotation Xrotation Yrotation
          JOINT RightFoot
          {
            OFFSET 0 19.1625 0
            CHANNELS 3 Zrotation Xrotation Yrotation
            JOINT RightToeBase
            {
              OFFSET 0 16.0188 0
              CHANNELS 3 Zrotation Xrotation Yrotation
              End Site
              {
                OFFSET 0.00678979 7.75782 -0.894207
              }
            }
          }
        }
      }
    }
  }
  JOINT LeftUpLeg
  {
    OFFSET 7.06048 -1.2947 -1.08609
    CHANNELS 3 Zrotation Xrotation Yrotation
    JOINT LeftUpLegRoll
    {
      OFFSET 0 18.5309 0
      CHANNELS 3 Zrotation Xrotation Yrotation
      JOINT LeftLeg
      {
        OFFSET 0 22.9475 0
        CHANNELS 3 Zrotation Xrotation Yrotation
        JOINT LeftLegRoll
        {
          OFFSET 0 23.2355 0
          CHANNELS 3 Zrotation Xrotation Yrotation
          JOINT LeftFoot
          {
            OFFSET 0 18.9496 0
            CHANNELS 3 Zrotation Xrotation Yrotation
            JOINT LeftToeBase
            {
              OFFSET 0 16.0188 0
              CHANNELS 3 Zrotation Xrotation Yrotation
              End Site
              {
                OFFSET -0.0304289 7.75782 -0.894206
              }
            }
          }
        }
      }
    }
  }
}
MOTION
Frames: 10
Frame Time: 0.00208333
51.9431 95.77 30.8279 -0.867646 -1.83289 3.26965 0.326757 -2.09655 0.00434878 0.664444 -0.190659 -0.034945 0.665045 1.45434 -0.0460729 0.611891 23.7911 -2.05621 0.806036 -5.20889 -1.71632 72.336 1.65737 -0.826143 102.856 19.7453 20.1074 6.19107e-007 -2.7655e-006 -2.10328e-005 3.75551 0.0341287 -0.28608 -4.46432e-006 -3.32593e-006 -3.04042 8.02975 -4.95138 0.697646 -69.6698 1.16328 0.724749 -108.914 19.8457 -16.6498 1.59028e-015 -3.18055e-015 -0 -1.85413 4.05037 -0.268458 1.66811e-005 -4.42324e-006 3.00693 -8.03006 -4.95139 -0.697653 177.365 -0.958615 -2.88068 180 7.01536e-015 178.876 177.613 5.13759 179.579 -2.68742e-006 -1.62836e-006 0.0573107 -18.6654 67.7772 19.3388 8.13649 25.2327 -3.48774 -173.922 0.979309 0.395768 4.54188e-006 -4.6773e-006 -1.109 -1.91436 -7.25256 0.137262 2.43306e-006 -7.34586e-006 -0.0893913 18.8659 68.5598 -20.0043 -8.13649 25.2327 3.48774 
51.9459 95.7659 30.8162 -0.861279 -1.8137 3.27548 0.324989 -2.09645 0.00318732 0.65984 -0.19067 -0.0361498 0.660455 1.45434 -0.0472011 0.619318 23.7593 -2.06244 0.804136 -5.20173 -1.72045 72.3373 1.64675 -0.831198 102.865 19.7642 20.089 6.19107e-007 -2.7655e-006 -2.10328e-005 3.76067 0.0341285 -0.286091 -4.46432e-006 -3.32593e-006 -3.04042 8.02975 -4.95138 0.697646 -69.6573 1.1621 0.72376 -108.914 19.8726 -16.6281 5.56597e-015 0 3.18055e-015 -1.86523 4.00999 -0.268138 1.66811e-005 -4.42324e-006 3.00693 -8.03006 -4.95139 -0.697653 177.356 -0.909196 -2.87388 180 7.01536e-015 178.876 177.608 5.17326 179.579 -2.68742e-006 -1.62836e-006 0.0575759 -18.666 67.7779 19.3396 8.13649 25.2327 -3.48774 -173.933 1.02025 0.404338 4.54188e-006 -4.6773e-006 -1.10906 -1.91164 -7.26936 0.13757 2.43306e-006 -7.34586e-006 -0.0895114 18.8665 68.5575 -20.0024 -8.13649 25.2327 3.48774 
51.944 95.7656 30.8022 -0.854891 -1.79474 3.28129 0.323228 -2.09638 0.00203429 0.655224 -0.190759 -0.0373038 0.655853 1.45425 -0.0482783 0.626868 23.7278 -2.06884 0.80217 -5.19481 -1.72472 72.3388 1.63575 -0.836452 102.874 19.7831 20.0709 6.19107e-007 -2.7655e-006 -2.10328e-005 3.76571 0.0341283 -0.286106 -4.46432e-006 -3.32593e-006 -3.04042 8.02975 -4.95138 0.697646 -69.6449 1.16099 0.722749 -108.913 19.8993 -16.6063 7.95139e-015 0 3.18055e-015 -1.87666 3.9693 -0.267814 1.66811e-005 -4.42324e-006 3.00693 -8.03006 -4.95139 -0.697653 177.347 -0.860997 -2.86676 180 7.01536e-015 178.877 177.604 5.20759 179.58 -2.68742e-006 -1.62836e-006 0.057824 -18.6662 67.7781 19.34 8.13649 25.2327 -3.48774 -173.943 1.06112 0.412814 4.54188e-006 -4.6773e-006 -1.10915 -1.90898 -7.28683 0.137889 2.43306e-006 -7.34586e-006 -0.0896414 18.8673 68.5556 -20.0008 -8.13649 25.2327 3.48774 
51.945 95.7697 30.7961 -0.848491 -1.77596 3.28708 0.321472 -2.09634 0.000887165 0.6506 -0.190904 -0.0384224 0.651242 1.45411 -0.0493199 0.634502 23.6967 -2.07537 0.800159 -5.18807 -1.72908 72.3404 1.62447 -0.841845 102.883 19.8018 20.0529 6.19107e-007 -2.7655e-006 -2.10328e-005 3.77065 0.0341281 -0.286123 -4.46432e-006 -3.32593e-006 -3.04043 8.02975 -4.95138 0.697646 -69.6325 1.15992 0.721724 -108.913 19.926 -16.5844 9.54166e-015 0 3.18055e-015 -1.88832 3.9284 -0.267487 1.66811e-005 -4.42324e-006 3.00693 -8.03006 -4.95139 -0.697653 177.338 -0.813652 -2.8594 180 7.01536e-015 178.877 177.599 5.24096 179.58 -2.68742e-006 -1.62836e-006 0.05806 -18.666 67.7779 19.34 8.13649 25.2327 -3.48774 -173.954 1.10193 0.421223 4.54188e-006 -4.6773e-006 -1.10926 -1.90635 -7.30478 0.138215 2.43306e-006 -7.34586e-006 -0.0897783 18.8683 68.554 -19.9995 -8.13649 25.2327 3.48774 
51.9442 95.769 30.7811 -0.842085 -1.75726 3.29287 0.319719 -2.0963 -0.000256591 0.645971 -0.19108 -0.0395206 0.646626 1.45393 -0.0503411 0.642181 23.6658 -2.08197 0.798122 -5.18144 -1.73349 72.3421 1.61304 -0.847317 102.891 19.8205 20.0351 6.19107e-007 -2.7655e-006 -2.10328e-005 3.77553 0.0341279 -0.286142 -4.46432e-006 -3.32593e-006 -3.04043 8.02975 -4.95138 0.697646 -69.6201 1.15887 0.720691 -108.913 19.9525 -16.5624 3.26007e-014 1.27222e-014 1.27222e-014 -1.90012 3.88737 -0.267159 1.66811e-005 -4.42324e-006 3.00693 -8.03006 -4.95139 -0.697653 177.329 -0.766794 -2.85191 180 7.01536e-015 178.877 177.593 5.27377 179.581 -2.68742e-006 -1.62836e-006 0.058289 -18.6657 67.7775 19.3399 8.13649 25.2327 -3.48774 -173.964 1.14271 0.429595 4.54188e-006 -4.6773e-006 -1.10938 -1.90376 -7.323 0.138546 2.43306e-006 -7.34586e-006 -0.0899191 18.8694 68.5525 -19.9983 -8.13649 25.2327 3.48774 
51.9381 95.765 30.7621 -0.83568 -1.73859 3.29866 0.317967 -2.09627 -0.0013995 0.641341 -0.191264 -0.0406138 0.642009 1.45375 -0.0513572 0.649865 23.6349 -2.08858 0.796079 -5.17482 -1.73792 72.3438 1.60156 -0.85281 102.9 19.8392 20.0173 6.19107e-007 -2.7655e-006 -2.10328e-005 3.78041 0.0341277 -0.286161 -4.46432e-006 -3.32593e-006 -3.04043 8.02975 -4.95138 0.697646 -69.6078 1.15783 0.719655 -108.913 19.979 -16.5404 1.82882e-014 6.36111e-015 3.18055e-015 -1.91194 3.84632 -0.266831 1.66811e-005 -4.42324e-006 3.00693 -8.03006 -4.95139 -0.697653 177.32 -0.720058 -2.84439 180 7.01536e-015 178.877 177.588 5.30645 179.581 -2.68742e-006 -1.62836e-006 0.0585163 -18.6653 67.777 19.3397 8.13649 25.2327 -3.48774 -173.975 1.18349 0.437958 4.54188e-006 -4.6773e-006 -1.10951 -1.90116 -7.34129 0.138878 2.43306e-006 -7.34586e-006 -0.090061 18.8706 68.551 -19.9972 -8.13649 25.2327 3.48774 
51.9493 95.767 30.7386 -0.829284 -1.71988 3.30446 0.316214 -2.09623 -0.0025441 0.636714 -0.191432 -0.0417171 0.637395 1.45358 -0.0523834 0.657515 23.6039 -2.09516 0.794051 -5.16816 -1.74232 72.3454 1.59017 -0.858262 102.909 19.8579 19.9994 6.19107e-007 -2.7655e-006 -2.10328e-005 3.78531 0.0341275 -0.286179 -4.46432e-006 -3.32593e-006 -3.04043 8.02975 -4.95138 0.697646 -69.5954 1.15678 0.718623 -108.912 20.0056 -16.5184 3.10104e-014 9.54166e-015 1.27222e-014 -1.9237 3.80532 -0.266504 1.66811e-005 -4.42324e-006 3.00693 -8.03006 -4.95139 -0.697653 177.311 -0.673077 -2.83693 180 7.01536e-015 178.878 177.583 5.33941 179.582 -2.68742e-006 -1.62836e-006 0.0587471 -18.665 67.7767 19.3396 8.13649 25.2327 -3.48774 -173.985 1.22428 0.446341 4.54188e-006 -4.6773e-006 -1.10963 -1.89856 -7.35945 0.139207 2.43306e-006 -7.34586e-006 -0.0902008 18.8716 68.5495 -19.9959 -8.13649 25.2327 3.48774 
51.9407 95.7604 30.7231 -0.822904 -1.70104 3.31026 0.314457 -2.09618 -0.00369292 0.632092 -0.191561 -0.0428458 0.632786 1.45346 -0.0534352 0.665092 23.5727 -2.10164 0.792057 -5.16137 -1.74665 72.347 1.57897 -0.863615 102.918 19.8767 19.9814 6.19107e-007 -2.7655e-006 -2.10328e-005 3.79028 0.0341273 -0.286196 -4.46432e-006 -3.32593e-006 -3.04043 8.02975 -4.95138 0.697646 -69.583 1.1557 0.717602 -108.912 20.0322 -16.4965 1.19271e-014 6.36111e-015 3.18055e-015 -1.9353 3.76448 -0.266179 1.66811e-005 -4.42324e-006 3.00693 -8.03006 -4.95139 -0.697653 177.302 -0.625485 -2.82965 180 7.01536e-015 178.878 177.578 5.37306 179.583 -2.68742e-006 -1.62836e-006 0.0589865 -18.6649 67.7766 19.3398 8.13649 25.2327 -3.48774 -173.996 1.2651 0.454771 4.54188e-006 -4.6773e-006 -1.10973 -1.89592 -7.37726 0.139532 2.43306e-006 -7.34586e-006 -0.0903357 18.8726 68.5478 -19.9945 -8.13649 25.2327 3.48774 
51.9405 95.7561 30.7052 -0.816546 -1.68202 3.31607 0.312694 -2.0961 -0.00484848 0.62748 -0.191627 -0.044015 0.628187 1.45339 -0.0545277 0.672557 23.5411 -2.10798 0.790118 -5.15438 -1.75088 72.3484 1.56808 -0.868809 102.927 19.8956 19.9632 6.19107e-007 -2.7655e-006 -2.10328e-005 3.79535 0.0341271 -0.286209 -4.46432e-006 -3.32593e-006 -3.04043 8.02975 -4.95138 0.697646 -69.5706 1.15457 0.716598 -108.912 20.059 -16.4747 7.15625e-015 -3.18055e-015 -0 -1.94663 3.72389 -0.265857 1.66811e-005 -4.42324e-006 3.00693 -8.03006 -4.95139 -0.697653 177.293 -0.576916 -2.82264 180 7.01536e-015 178.878 177.574 5.40777 179.583 -2.68742e-006 -1.62836e-006 0.0592398 -18.6652 67.777 19.3403 8.13649 25.2327 -3.48774 -174.007 1.30599 0.463278 4.54188e-006 -4.6773e-006 -1.10981 -1.89324 -7.39453 0.139848 2.43306e-006 -7.34586e-006 -0.0904628 18.8734 68.5458 -19.9929 -8.13649 25.2327 3.48774 
51.9422 95.757 30.6912 -0.810219 -1.66273 3.32191 0.310923 -2.09599 -0.00601331 0.622881 -0.191607 -0.0452401 0.623603 1.45341 -0.0556762 0.679871 23.5091 -2.11412 0.788253 -5.14711 -1.75496 72.3497 1.55762 -0.873785 102.936 19.9147 19.9446 6.19107e-007 -2.7655e-006 -2.10328e-005 3.80057 0.0341269 -0.286219 -4.46432e-006 -3.32593e-006 -3.04044 8.02975 -4.95138 0.697646 -69.558 1.15336 0.715618 -108.913 20.086 -16.453 2.70347e-014 9.54166e-015 9.54166e-015 -1.95759 3.68363 -0.26554 1.66811e-005 -4.42324e-006 3.00693 -8.03006 -4.95139 -0.697653 177.284 -0.527004 -2.816 180 7.01536e-015 178.878 177.57 5.44399 179.583 -2.68742e-006 -1.62836e-006 0.059512 -18.666 67.7779 19.3413 8.13649 25.2327 -3.48774 -174.017 1.34696 0.47189 4.54188e-006 -4.6773e-006 -1.10986 -1.89049 -7.41105 0.140152 2.43306e-006 -7.34586e-006 -0.090579 18.8739 68.5433 -19.9909 -8.13649 25.2327 3.48774 
